<svg xmlns="http://www.w3.org/2000/svg" width="24" height="15" viewBox="0 0 24 15">
    <g fill="none" fill-rule="evenodd">
        <g fill="#171818">
            <g>
                <g>
                    <path d="M99.235 7.377V4.679h-2.002v2.698H94.48v1.962h2.753v2.698h2.002V9.339h2.752V7.377h-2.752zm-13.721-.552V9.9h4.285c-.642 1.635-2.275 2.797-4.188 2.797-2.474 0-4.48-1.94-4.48-4.334 0-2.394 2.006-4.334 4.48-4.334 1.102 0 2.11.386 2.891 1.025l2.243-2.124C89.391 1.732 87.59 1 85.611 1 81.407 1 78 4.296 78 8.363s3.407 7.364 7.611 7.364c4.203 0 7.609-3.297 7.609-7.364 0-.527-.057-1.042-.166-1.538h-7.54z" transform="translate(-1412.000000, -7285.000000) translate(0.000000, 7052.000000) translate(1334.000000, 232.000000)"/>
                </g>
            </g>
        </g>
    </g>
</svg>
