<svg width="66" height="66" viewBox="0 0 66 66" fill="none" xmlns="http://www.w3.org/2000/svg">
<path d="M33 66C51.2254 66 66 51.2254 66 33C66 14.7746 51.2254 0 33 0C14.7746 0 0 14.7746 0 33C0 51.2254 14.7746 66 33 66Z" fill="white"/>
<g filter="url(#filter0_i)">
<path d="M33 66C51.2254 66 66 51.2254 66 33C66 14.7746 51.2254 0 33 0C14.7746 0 0 14.7746 0 33C0 51.2254 14.7746 66 33 66Z" fill="white"/>
</g>
<path d="M33.0002 18.4412C24.9599 18.4412 18.4414 24.9596 18.4414 33C18.4414 33.4678 18.4414 33.9259 18.5142 34.3831C19.2616 42.2089 26.0867 48.0295 33.932 47.5297C41.7782 47.0298 47.8104 40.391 47.5591 32.5341C47.3067 24.6762 40.862 18.4373 33.0002 18.4412V18.4412ZM33.0002 20.5211C36.2886 20.524 39.442 21.8246 41.7773 24.1395V25.18C37.6668 23.7658 33.1992 23.7833 29.1014 25.2314C28.7733 24.913 28.3618 24.6927 27.9153 24.5976H27.6552C27.53 24.1608 27.4155 23.7241 27.3223 23.2776C27.2291 22.8292 27.1767 22.4342 27.1243 22.0081C28.9296 21.0336 30.9484 20.5231 33.0002 20.5211V20.5211ZM29.8808 26.6261C33.6563 25.3605 37.7503 25.408 41.4968 26.7601C40.9891 29.402 39.8827 31.8925 38.2618 34.0395C37.3329 33.6464 36.2566 33.8842 35.5791 34.6325C35.2151 34.4248 34.8511 34.2171 34.5396 33.9774C32.4402 32.5768 30.6863 30.7162 29.4129 28.5392C29.8293 28.0218 30.0069 27.3531 29.9011 26.698L29.8808 26.6252V26.6261ZM25.7208 22.8806C25.7208 23.099 25.7829 23.3271 25.8247 23.5465C25.9188 24.0036 26.0431 24.451 26.1683 24.8985C25.3539 25.3799 24.9046 26.3 25.0239 27.2376C23.3827 28.3101 21.9161 29.6291 20.6776 31.1481C21.1794 27.8238 23.0022 24.8432 25.7315 22.8806H25.7208V22.8806ZM25.7208 39.2176C24.8948 39.4952 24.2795 40.193 24.1096 41.0481H23.4438C21.7647 39.0448 20.7592 36.563 20.5728 33.956L20.6873 33.758C21.9899 31.7392 23.6923 30.0086 25.6898 28.6721C26.2993 29.3098 27.2097 29.5612 28.0609 29.3283C29.4518 31.679 31.3531 33.6862 33.6243 35.2032C34.0514 35.4847 34.4881 35.7448 34.9249 35.9942C34.889 36.3922 34.954 36.7921 35.1113 37.159C33.2089 38.6702 31.0134 39.7708 28.6636 40.393C28.1007 39.3418 26.8593 38.8526 25.7315 39.238L25.7208 39.2185V39.2176ZM33.0002 45.4575C30.8843 45.4575 28.8053 44.9169 26.9583 43.8871L27.2495 43.825C28.092 43.5483 28.718 42.835 28.882 41.9634C31.5414 41.2849 34.0232 40.0435 36.1614 38.3237C37.2136 38.938 38.5588 38.6595 39.2809 37.6782C40.7484 38.0597 42.2577 38.2557 43.7738 38.2606H44.3251C42.2771 42.6661 37.858 45.4817 33.0002 45.4779V45.4575V45.4575ZM39.7701 36.202C39.7691 35.7652 39.6507 35.3381 39.4265 34.9645C41.158 32.703 42.3616 30.0853 42.9526 27.3007C43.4719 27.5433 43.9853 27.8132 44.491 28.1111C45.6353 30.8142 45.7897 33.8337 44.9278 36.6387C43.2011 36.7727 41.4647 36.6358 39.7808 36.233L39.7701 36.202V36.202Z" fill="#333333"/>
<defs>
<filter id="filter0_i" x="0" y="0" width="66" height="66" filterUnits="userSpaceOnUse" color-interpolation-filters="sRGB">
<feFlood flood-opacity="0" result="BackgroundImageFix"/>
<feBlend mode="normal" in="SourceGraphic" in2="BackgroundImageFix" result="shape"/>
<feColorMatrix in="SourceAlpha" type="matrix" values="0 0 0 0 0 0 0 0 0 0 0 0 0 0 0 0 0 0 127 0" result="hardAlpha"/>
<feOffset/>
<feGaussianBlur stdDeviation="10"/>
<feComposite in2="hardAlpha" operator="arithmetic" k2="-1" k3="1"/>
<feColorMatrix type="matrix" values="0 0 0 0 0 0 0 0 0 0 0 0 0 0 0 0 0 0 0.0997041 0"/>
<feBlend mode="normal" in2="shape" result="effect1_innerShadow"/>
</filter>
</defs>
</svg>
