<svg width="100" height="100" viewBox="0 0 100 100" fill="none" xmlns="http://www.w3.org/2000/svg">
<path fill-rule="evenodd" clip-rule="evenodd" d="M61.8992 7.30328C82.0007 5.19052 87.6194 32.2893 89.3573 48.1087C91.0952 63.928 90.6897 87.8602 70.5881 89.9729C50.4865 92.0857 13.5361 74.1089 11.4057 53.8396C9.27529 33.5702 41.7976 9.41604 61.8992 7.30328Z" fill="#A6A6A6" fill-opacity="0.2"/>
<g filter="url(#filter0_d)">
<path d="M64.536 18.7981H38.5409C35.183 18.7981 32.4609 21.5202 32.4609 24.8781V76.5642C32.4609 79.9221 35.183 82.6442 38.5409 82.6442H64.536C67.8939 82.6442 70.616 79.9221 70.616 76.5642V24.8781C70.616 21.5202 67.8939 18.7981 64.536 18.7981Z" fill="black"/>
</g>
<path d="M64.536 18.7981H38.5409C35.183 18.7981 32.4609 21.5202 32.4609 24.8781V76.5642C32.4609 79.9221 35.183 82.6442 38.5409 82.6442H64.536C67.8939 82.6442 70.616 79.9221 70.616 76.5642V24.8781C70.616 21.5202 67.8939 18.7981 64.536 18.7981Z" fill="#656565"/>
<path d="M66.9767 28.3274H36.1011C35.2616 28.3274 34.5811 29.0079 34.5811 29.8474V72.6246C34.5811 73.464 35.2616 74.1446 36.1011 74.1446H66.9767C67.8161 74.1446 68.4967 73.464 68.4967 72.6246V29.8474C68.4967 29.0079 67.8161 28.3274 66.9767 28.3274Z" fill="white"/>
<g filter="url(#filter1_d)">
<path d="M47.1328 24.5167C46.6118 24.5167 46.1895 24.0896 46.1895 23.5627C46.1895 23.0358 46.6118 22.6087 47.1328 22.6087H53.1016C53.6227 22.6087 54.045 23.0358 54.045 23.5627C54.045 24.0896 53.6227 24.5167 53.1016 24.5167H47.1328Z" fill="black"/>
</g>
<path d="M47.1328 24.5167C46.6118 24.5167 46.1895 24.0896 46.1895 23.5627C46.1895 23.0358 46.6118 22.6087 47.1328 22.6087H53.1016C53.6227 22.6087 54.045 23.0358 54.045 23.5627C54.045 24.0896 53.6227 24.5167 53.1016 24.5167H47.1328Z" fill="white"/>
<g filter="url(#filter2_d)">
<path d="M55.5655 24.5167C55.0444 24.5167 54.6221 24.0896 54.6221 23.5627C54.6221 23.0358 55.0444 22.6087 55.5655 22.6087H56.0392C56.5602 22.6087 56.9826 23.0358 56.9826 23.5627C56.9826 24.0896 56.5602 24.5167 56.0392 24.5167H55.5655Z" fill="black"/>
</g>
<path d="M55.5655 24.5167C55.0444 24.5167 54.6221 24.0896 54.6221 23.5627C54.6221 23.0358 55.0444 22.6087 55.5655 22.6087H56.0392C56.5602 22.6087 56.9826 23.0358 56.9826 23.5627C56.9826 24.0896 56.5602 24.5167 56.0392 24.5167H55.5655Z" fill="white"/>
<path d="M38.0771 72.123C65.3848 80.3365 38.0771 23.4135 62.6925 30.5289" stroke="#7B7B7B" stroke-width="1.23077" stroke-dasharray="2.46 2.46"/>
<g filter="url(#filter3_d)">
<path d="M71.1532 38.7981C78.163 38.7981 83.8456 33.1155 83.8456 26.1058C83.8456 19.096 78.163 13.4135 71.1532 13.4135C64.1435 13.4135 58.4609 19.096 58.4609 26.1058C58.4609 33.1155 64.1435 38.7981 71.1532 38.7981Z" fill="black"/>
</g>
<path d="M71.1532 38.7981C78.163 38.7981 83.8456 33.1155 83.8456 26.1058C83.8456 19.096 78.163 13.4135 71.1532 13.4135C64.1435 13.4135 58.4609 19.096 58.4609 26.1058C58.4609 33.1155 64.1435 38.7981 71.1532 38.7981Z" fill="#828282"/>
<g filter="url(#filter4_d)">
<path d="M67.5256 20.4732C67.6144 20.4732 67.702 20.4928 67.7823 20.5306L77.8247 25.2566C78.1259 25.3984 78.2552 25.7575 78.1135 26.0587C78.0578 26.1768 77.9654 26.2737 77.85 26.3348L67.8075 31.6482C67.5133 31.8038 67.1485 31.6915 66.9928 31.3973C66.9469 31.3104 66.9229 31.2136 66.9229 31.1154V27.9215L74.0248 26.0353C74.0533 26.0277 74.0774 26.01 74.0931 25.9861L74.1099 25.9464C74.1239 25.8826 74.0835 25.8196 74.0198 25.8056L66.9229 24.2475V21.076C66.9229 20.7431 67.1927 20.4732 67.5256 20.4732Z" fill="black"/>
</g>
<path d="M67.5256 20.4732C67.6144 20.4732 67.702 20.4928 67.7823 20.5306L77.8247 25.2566C78.1259 25.3984 78.2552 25.7575 78.1135 26.0587C78.0578 26.1768 77.9654 26.2737 77.85 26.3348L67.8075 31.6482C67.5133 31.8038 67.1485 31.6915 66.9928 31.3973C66.9469 31.3104 66.9229 31.2136 66.9229 31.1154V27.9215L74.0248 26.0353C74.0533 26.0277 74.0774 26.01 74.0931 25.9861L74.1099 25.9464C74.1239 25.8826 74.0835 25.8196 74.0198 25.8056L66.9229 24.2475V21.076C66.9229 20.7431 67.1927 20.4732 67.5256 20.4732Z" fill="white"/>
<g filter="url(#filter5_d)">
<path d="M31.9228 87.2596C38.9325 87.2596 44.6151 81.5771 44.6151 74.5673C44.6151 67.5575 38.9325 61.875 31.9228 61.875C24.913 61.875 19.2305 67.5575 19.2305 74.5673C19.2305 81.5771 24.913 87.2596 31.9228 87.2596Z" fill="black"/>
</g>
<path d="M31.9228 87.2596C38.9325 87.2596 44.6151 81.5771 44.6151 74.5673C44.6151 67.5575 38.9325 61.875 31.9228 61.875C24.913 61.875 19.2305 67.5575 19.2305 74.5673C19.2305 81.5771 24.913 87.2596 31.9228 87.2596Z" fill="#828282"/>
<g filter="url(#filter6_d)">
<path d="M31.6537 68.0288C27.8998 68.0288 24.8461 71.0826 24.8461 74.8365C24.8461 76.0241 25.1567 77.1908 25.7451 78.2173L24.6271 81.5713C24.6003 81.6518 24.6197 81.7402 24.6776 81.8021C24.7219 81.8494 24.7833 81.875 24.8461 81.875C24.8657 81.875 24.8853 81.8725 24.9047 81.8674L28.5663 80.9039C29.5175 81.3885 30.583 81.6442 31.6537 81.6442C35.4076 81.6442 38.4614 78.5905 38.4614 74.8365C38.4614 71.0826 35.4076 68.0288 31.6537 68.0288ZM34.9289 77.583L34.5961 77.9162C34.1757 78.3368 33.7067 78.5501 33.2025 78.5501C32.5227 78.5501 31.7898 78.1617 31.0244 77.3958L29.0942 75.4648C28.4906 74.8608 28.1197 74.2741 27.9917 73.7207C27.8364 73.0488 28.0324 72.4333 28.5743 71.8913L28.9073 71.558C29.1215 71.3438 29.4678 71.2911 29.7361 71.4332C30.2402 71.7001 30.7624 72.5746 30.8203 72.6735C30.9248 72.8567 30.9568 73.0461 30.9118 73.2085C30.8773 73.3326 30.7997 73.4337 30.6868 73.5025C30.5338 73.6306 30.3545 73.7901 30.3229 73.8306C30.1305 74.1146 30.1525 74.3326 30.4003 74.5808L31.9079 76.0892C32.1579 76.3394 32.372 76.3601 32.6604 76.1646C32.6984 76.1348 32.8577 75.9554 32.9857 75.8024C33.0813 75.6442 33.2379 75.5576 33.4284 75.5576C33.5531 75.5576 33.6859 75.5955 33.8122 75.6675C33.9129 75.7268 34.7871 76.2493 35.0537 76.7534C35.1995 77.0292 35.1495 77.3623 34.9289 77.583Z" fill="black"/>
</g>
<path d="M31.6537 68.0288C27.8998 68.0288 24.8461 71.0826 24.8461 74.8365C24.8461 76.0241 25.1567 77.1908 25.7451 78.2173L24.6271 81.5713C24.6003 81.6518 24.6197 81.7402 24.6776 81.8021C24.7219 81.8494 24.7833 81.875 24.8461 81.875C24.8657 81.875 24.8853 81.8725 24.9047 81.8674L28.5663 80.9039C29.5175 81.3885 30.583 81.6442 31.6537 81.6442C35.4076 81.6442 38.4614 78.5905 38.4614 74.8365C38.4614 71.0826 35.4076 68.0288 31.6537 68.0288ZM34.9289 77.583L34.5961 77.9162C34.1757 78.3368 33.7067 78.5501 33.2025 78.5501C32.5227 78.5501 31.7898 78.1617 31.0244 77.3958L29.0942 75.4648C28.4906 74.8608 28.1197 74.2741 27.9917 73.7207C27.8364 73.0488 28.0324 72.4333 28.5743 71.8913L28.9073 71.558C29.1215 71.3438 29.4678 71.2911 29.7361 71.4332C30.2402 71.7001 30.7624 72.5746 30.8203 72.6735C30.9248 72.8567 30.9568 73.0461 30.9118 73.2085C30.8773 73.3326 30.7997 73.4337 30.6868 73.5025C30.5338 73.6306 30.3545 73.7901 30.3229 73.8306C30.1305 74.1146 30.1525 74.3326 30.4003 74.5808L31.9079 76.0892C32.1579 76.3394 32.372 76.3601 32.6604 76.1646C32.6984 76.1348 32.8577 75.9554 32.9857 75.8024C33.0813 75.6442 33.2379 75.5576 33.4284 75.5576C33.5531 75.5576 33.6859 75.5955 33.8122 75.6675C33.9129 75.7268 34.7871 76.2493 35.0537 76.7534C35.1995 77.0292 35.1495 77.3623 34.9289 77.583Z" fill="white"/>
<defs>
<filter id="filter0_d" x="23.4609" y="11.7981" width="56.1551" height="81.8462" filterUnits="userSpaceOnUse" color-interpolation-filters="sRGB">
<feFlood flood-opacity="0" result="BackgroundImageFix"/>
<feColorMatrix in="SourceAlpha" type="matrix" values="0 0 0 0 0 0 0 0 0 0 0 0 0 0 0 0 0 0 127 0"/>
<feOffset dy="2"/>
<feGaussianBlur stdDeviation="4.5"/>
<feColorMatrix type="matrix" values="0 0 0 0 0 0 0 0 0 0 0 0 0 0 0 0 0 0 0.249044 0"/>
<feBlend mode="normal" in2="BackgroundImageFix" result="effect1_dropShadow"/>
<feBlend mode="normal" in="SourceGraphic" in2="effect1_dropShadow" result="shape"/>
</filter>
<filter id="filter1_d" x="40.1895" y="20.6087" width="19.8556" height="13.908" filterUnits="userSpaceOnUse" color-interpolation-filters="sRGB">
<feFlood flood-opacity="0" result="BackgroundImageFix"/>
<feColorMatrix in="SourceAlpha" type="matrix" values="0 0 0 0 0 0 0 0 0 0 0 0 0 0 0 0 0 0 127 0"/>
<feOffset dy="4"/>
<feGaussianBlur stdDeviation="3"/>
<feColorMatrix type="matrix" values="0 0 0 0 0 0 0 0 0 0 0 0 0 0 0 0 0 0 0.106544 0"/>
<feBlend mode="normal" in2="BackgroundImageFix" result="effect1_dropShadow"/>
<feBlend mode="normal" in="SourceGraphic" in2="effect1_dropShadow" result="shape"/>
</filter>
<filter id="filter2_d" x="48.6221" y="20.6087" width="14.3605" height="13.908" filterUnits="userSpaceOnUse" color-interpolation-filters="sRGB">
<feFlood flood-opacity="0" result="BackgroundImageFix"/>
<feColorMatrix in="SourceAlpha" type="matrix" values="0 0 0 0 0 0 0 0 0 0 0 0 0 0 0 0 0 0 127 0"/>
<feOffset dy="4"/>
<feGaussianBlur stdDeviation="3"/>
<feColorMatrix type="matrix" values="0 0 0 0 0 0 0 0 0 0 0 0 0 0 0 0 0 0 0.106544 0"/>
<feBlend mode="normal" in2="BackgroundImageFix" result="effect1_dropShadow"/>
<feBlend mode="normal" in="SourceGraphic" in2="effect1_dropShadow" result="shape"/>
</filter>
<filter id="filter3_d" x="49.4609" y="6.41347" width="43.3846" height="43.3846" filterUnits="userSpaceOnUse" color-interpolation-filters="sRGB">
<feFlood flood-opacity="0" result="BackgroundImageFix"/>
<feColorMatrix in="SourceAlpha" type="matrix" values="0 0 0 0 0 0 0 0 0 0 0 0 0 0 0 0 0 0 127 0"/>
<feOffset dy="2"/>
<feGaussianBlur stdDeviation="4.5"/>
<feColorMatrix type="matrix" values="0 0 0 0 0 0 0 0 0 0 0 0 0 0 0 0 0 0 0.249044 0"/>
<feBlend mode="normal" in2="BackgroundImageFix" result="effect1_dropShadow"/>
<feBlend mode="normal" in="SourceGraphic" in2="effect1_dropShadow" result="shape"/>
</filter>
<filter id="filter4_d" x="61.9229" y="19.4732" width="21.2481" height="21.245" filterUnits="userSpaceOnUse" color-interpolation-filters="sRGB">
<feFlood flood-opacity="0" result="BackgroundImageFix"/>
<feColorMatrix in="SourceAlpha" type="matrix" values="0 0 0 0 0 0 0 0 0 0 0 0 0 0 0 0 0 0 127 0"/>
<feOffset dy="4"/>
<feGaussianBlur stdDeviation="2.5"/>
<feColorMatrix type="matrix" values="0 0 0 0 0 0 0 0 0 0 0 0 0 0 0 0 0 0 0.106544 0"/>
<feBlend mode="normal" in2="BackgroundImageFix" result="effect1_dropShadow"/>
<feBlend mode="normal" in="SourceGraphic" in2="effect1_dropShadow" result="shape"/>
</filter>
<filter id="filter5_d" x="10.2305" y="54.875" width="43.3846" height="43.3846" filterUnits="userSpaceOnUse" color-interpolation-filters="sRGB">
<feFlood flood-opacity="0" result="BackgroundImageFix"/>
<feColorMatrix in="SourceAlpha" type="matrix" values="0 0 0 0 0 0 0 0 0 0 0 0 0 0 0 0 0 0 127 0"/>
<feOffset dy="2"/>
<feGaussianBlur stdDeviation="4.5"/>
<feColorMatrix type="matrix" values="0 0 0 0 0 0 0 0 0 0 0 0 0 0 0 0 0 0 0.249044 0"/>
<feBlend mode="normal" in2="BackgroundImageFix" result="effect1_dropShadow"/>
<feBlend mode="normal" in="SourceGraphic" in2="effect1_dropShadow" result="shape"/>
</filter>
<filter id="filter6_d" x="19.6152" y="67.0288" width="23.8462" height="23.8462" filterUnits="userSpaceOnUse" color-interpolation-filters="sRGB">
<feFlood flood-opacity="0" result="BackgroundImageFix"/>
<feColorMatrix in="SourceAlpha" type="matrix" values="0 0 0 0 0 0 0 0 0 0 0 0 0 0 0 0 0 0 127 0"/>
<feOffset dy="4"/>
<feGaussianBlur stdDeviation="2.5"/>
<feColorMatrix type="matrix" values="0 0 0 0 0 0 0 0 0 0 0 0 0 0 0 0 0 0 0.106544 0"/>
<feBlend mode="normal" in2="BackgroundImageFix" result="effect1_dropShadow"/>
<feBlend mode="normal" in="SourceGraphic" in2="effect1_dropShadow" result="shape"/>
</filter>
</defs>
</svg>
