<svg width="214" height="40" viewBox="0 0 214 40" fill="none" xmlns="http://www.w3.org/2000/svg">
<g clip-path="url(#clip0)">
<path d="M34.9095 0L11.6372 40H23.2722L46.5445 0H34.9095Z" fill="#2D2D2D"/>
<path opacity="0.4" d="M17.4551 29.9996L23.2726 40.0001L20.0457 25.5457L17.4551 29.9996Z" fill="#1A1A1A"/>
<path d="M23.2723 0L11.6373 20.0011H0L11.6373 0H23.2723Z" fill="#5D5D5D"/>
<path d="M0 20.001L11.6373 39.9999H23.2723L11.6373 20.001H0Z" fill="#4D4D4D"/>
<path d="M34.9097 0L46.5447 20.0011H58.1819L46.5447 0H34.9097Z" fill="#5D5D5D"/>
<path d="M58.1819 20.001L46.5447 39.9999H34.9097L46.5447 20.001H58.1819Z" fill="#4D4D4D"/>
<path opacity="0.4" d="M40.7272 10.0006L34.9097 0L38.1366 14.4545L40.7272 10.0006Z" fill="#1A1A1A"/>
</g>
<path d="M91.9682 4.6665V31.084H87.6717V28.6273C86.9318 29.5293 86.0128 30.2057 84.9148 30.6567C83.8407 31.1077 82.6473 31.3332 81.3345 31.3332C79.4966 31.3332 77.8377 30.9297 76.3578 30.1227C74.9017 29.3157 73.756 28.1764 72.9206 26.7048C72.0852 25.2095 71.6675 23.5005 71.6675 21.5779C71.6675 19.6554 72.0852 17.9583 72.9206 16.4867C73.756 15.0151 74.9017 13.8758 76.3578 13.0688C77.8377 12.2618 79.4966 11.8583 81.3345 11.8583C82.5995 11.8583 83.7572 12.0719 84.8074 12.4992C85.8577 12.9264 86.7528 13.5673 87.4927 14.4217V4.6665H91.9682ZM81.8715 27.5236C82.9456 27.5236 83.9123 27.2863 84.7716 26.8116C85.6309 26.3131 86.3112 25.613 86.8124 24.711C87.3137 23.8091 87.5643 22.7647 87.5643 21.5779C87.5643 20.3912 87.3137 19.3468 86.8124 18.4449C86.3112 17.5429 85.6309 16.8546 84.7716 16.3799C83.9123 15.8815 82.9456 15.6322 81.8715 15.6322C80.7974 15.6322 79.8307 15.8815 78.9714 16.3799C78.1121 16.8546 77.4319 17.5429 76.9306 18.4449C76.4294 19.3468 76.1787 20.3912 76.1787 21.5779C76.1787 22.7647 76.4294 23.8091 76.9306 24.711C77.4319 25.613 78.1121 26.3131 78.9714 26.8116C79.8307 27.2863 80.7974 27.5236 81.8715 27.5236Z" fill="#4D4D4D"/>
<path d="M117.945 21.6848C117.945 21.9933 117.921 22.4324 117.873 23.0021H102.871C103.134 24.4025 103.814 25.518 104.912 26.3487C106.034 27.1558 107.418 27.5593 109.065 27.5593C111.166 27.5593 112.896 26.8709 114.257 25.4943L116.656 28.2357C115.796 29.2563 114.71 30.0277 113.398 30.5499C112.085 31.0721 110.605 31.3332 108.958 31.3332C106.857 31.3332 105.008 30.9178 103.408 30.0871C101.809 29.2563 100.568 28.1052 99.6847 26.6336C98.8254 25.1382 98.3958 23.453 98.3958 21.5779C98.3958 19.7266 98.8135 18.0651 99.6489 16.5935C100.508 15.0982 101.69 13.9352 103.193 13.1044C104.697 12.2737 106.392 11.8583 108.278 11.8583C110.139 11.8583 111.798 12.2737 113.254 13.1044C114.734 13.9114 115.88 15.0626 116.691 16.5579C117.527 18.0295 117.945 19.7385 117.945 21.6848ZM108.278 15.4186C106.845 15.4186 105.628 15.8459 104.626 16.7003C103.647 17.5311 103.05 18.6466 102.835 20.047H113.684C113.493 18.6704 112.908 17.5548 111.93 16.7003C110.951 15.8459 109.734 15.4186 108.278 15.4186Z" fill="#4D4D4D"/>
<path d="M130.299 31.3332C128.748 31.3332 127.232 31.1314 125.752 30.7279C124.272 30.3244 123.091 29.8141 122.208 29.197L123.926 25.8147C124.786 26.3844 125.812 26.8472 127.005 27.2032C128.223 27.5355 129.416 27.7017 130.586 27.7017C133.259 27.7017 134.596 27.0015 134.596 25.6011C134.596 24.9365 134.25 24.4737 133.558 24.2126C132.889 23.9515 131.803 23.7023 130.299 23.4649C128.724 23.2275 127.435 22.9546 126.433 22.646C125.454 22.3375 124.595 21.8034 123.855 21.0439C123.139 20.2606 122.781 19.1807 122.781 17.804C122.781 16.0001 123.532 14.5641 125.036 13.4961C126.564 12.4042 128.617 11.8583 131.194 11.8583C132.507 11.8583 133.82 12.0126 135.133 12.3212C136.446 12.606 137.52 12.9976 138.355 13.4961L136.637 16.8783C135.014 15.9289 133.188 15.4542 131.159 15.4542C129.846 15.4542 128.843 15.656 128.151 16.0595C127.483 16.4392 127.149 16.9496 127.149 17.5904C127.149 18.3025 127.507 18.8128 128.223 19.1213C128.963 19.4062 130.096 19.6791 131.624 19.9402C133.152 20.1776 134.405 20.4505 135.384 20.7591C136.362 21.0676 137.198 21.5898 137.89 22.3256C138.606 23.0614 138.964 24.1058 138.964 25.4587C138.964 27.2388 138.188 28.6629 136.637 29.731C135.085 30.7991 132.973 31.3332 130.299 31.3332Z" fill="#4D4D4D"/>
<path d="M163.692 4.6665V31.084H159.395V28.6273C158.655 29.5293 157.736 30.2057 156.638 30.6567C155.564 31.1077 154.371 31.3332 153.058 31.3332C151.22 31.3332 149.561 30.9297 148.081 30.1227C146.625 29.3157 145.479 28.1764 144.644 26.7048C143.809 25.2095 143.391 23.5005 143.391 21.5779C143.391 19.6554 143.809 17.9583 144.644 16.4867C145.479 15.0151 146.625 13.8758 148.081 13.0688C149.561 12.2618 151.22 11.8583 153.058 11.8583C154.323 11.8583 155.481 12.0719 156.531 12.4992C157.581 12.9264 158.476 13.5673 159.216 14.4217V4.6665H163.692ZM153.595 27.5236C154.669 27.5236 155.636 27.2863 156.495 26.8116C157.354 26.3131 158.035 25.613 158.536 24.711C159.037 23.8091 159.288 22.7647 159.288 21.5779C159.288 20.3912 159.037 19.3468 158.536 18.4449C158.035 17.5429 157.354 16.8546 156.495 16.3799C155.636 15.8815 154.669 15.6322 153.595 15.6322C152.521 15.6322 151.554 15.8815 150.695 16.3799C149.836 16.8546 149.155 17.5429 148.654 18.4449C148.153 19.3468 147.902 20.3912 147.902 21.5779C147.902 22.7647 148.153 23.8091 148.654 24.711C149.155 25.613 149.836 26.3131 150.695 26.8116C151.554 27.2863 152.521 27.5236 153.595 27.5236Z" fill="#4D4D4D"/>
<path d="M189.668 21.6848C189.668 21.9933 189.644 22.4324 189.596 23.0021H174.595C174.857 24.4025 175.538 25.518 176.636 26.3487C177.757 27.1558 179.142 27.5593 180.789 27.5593C182.889 27.5593 184.62 26.8709 185.98 25.4943L188.379 28.2357C187.52 29.2563 186.434 30.0277 185.121 30.5499C183.808 31.0721 182.328 31.3332 180.681 31.3332C178.581 31.3332 176.731 30.9178 175.132 30.0871C173.533 29.2563 172.291 28.1052 171.408 26.6336C170.549 25.1382 170.119 23.453 170.119 21.5779C170.119 19.7266 170.537 18.0651 171.372 16.5935C172.232 15.0982 173.413 13.9352 174.917 13.1044C176.421 12.2737 178.115 11.8583 180.001 11.8583C181.863 11.8583 183.522 12.2737 184.978 13.1044C186.458 13.9114 187.603 15.0626 188.415 16.5579C189.25 18.0295 189.668 19.7385 189.668 21.6848ZM180.001 15.4186C178.569 15.4186 177.352 15.8459 176.349 16.7003C175.37 17.5311 174.774 18.6466 174.559 20.047H185.407C185.216 18.6704 184.632 17.5548 183.653 16.7003C182.674 15.8459 181.457 15.4186 180.001 15.4186Z" fill="#4D4D4D"/>
<path d="M213.667 12.0719L205.468 31.084H200.85L192.651 12.0719H197.305L203.249 26.1707L209.371 12.0719H213.667Z" fill="#4D4D4D"/>
<defs>
<clipPath id="clip0">
<rect width="58.1818" height="40" fill="white"/>
</clipPath>
</defs>
</svg>
