<svg width="182" height="34" viewBox="0 0 182 34" fill="none" xmlns="http://www.w3.org/2000/svg">
<path d="M77.6638 3.96667V26.4215H74.0118V24.3334C73.3829 25.1 72.6018 25.675 71.6685 26.0583C70.7555 26.4417 69.741 26.6333 68.6252 26.6333C67.0629 26.6333 65.6528 26.2904 64.3949 25.6044C63.1573 24.9185 62.1835 23.9501 61.4734 22.6992C60.7633 21.4282 60.4082 19.9756 60.4082 18.3414C60.4082 16.7072 60.7633 15.2647 61.4734 14.0138C62.1835 12.763 63.1573 11.7946 64.3949 11.1086C65.6528 10.4227 67.0629 10.0797 68.6252 10.0797C69.7005 10.0797 70.6845 10.2613 71.5772 10.6244C72.4699 10.9876 73.2307 11.5323 73.8597 12.2586V3.96667H77.6638ZM69.0817 23.3952C69.9946 23.3952 70.8163 23.1935 71.5467 22.79C72.2771 22.3663 72.8554 21.7712 73.2814 21.0045C73.7075 20.2379 73.9205 19.3501 73.9205 18.3414C73.9205 17.3326 73.7075 16.4449 73.2814 15.6783C72.8554 14.9116 72.2771 14.3266 71.5467 13.9231C70.8163 13.4994 69.9946 13.2875 69.0817 13.2875C68.1687 13.2875 67.347 13.4994 66.6166 13.9231C65.8862 14.3266 65.3079 14.9116 64.8819 15.6783C64.4558 16.4449 64.2428 17.3326 64.2428 18.3414C64.2428 19.3501 64.4558 20.2379 64.8819 21.0045C65.3079 21.7712 65.8862 22.3663 66.6166 22.79C67.347 23.1935 68.1687 23.3952 69.0817 23.3952Z" fill="white"/>
<path d="M99.7438 18.4322C99.7438 18.6945 99.7235 19.0677 99.6829 19.5519H86.9314C87.1546 20.7422 87.7328 21.6905 88.6661 22.3966C89.6197 23.0825 90.7964 23.4255 92.1963 23.4255C93.9818 23.4255 95.4527 22.8404 96.6091 21.6703L98.6482 24.0005C97.9178 24.868 96.9946 25.5237 95.8788 25.9676C94.7629 26.4114 93.505 26.6333 92.105 26.6333C90.3196 26.6333 88.7473 26.2803 87.3879 25.5741C86.0286 24.868 84.9735 23.8895 84.2229 22.6387C83.4925 21.3677 83.1273 19.9352 83.1273 18.3414C83.1273 16.7677 83.4823 15.3555 84.1924 14.1046C84.9228 12.8336 85.9271 11.845 87.2053 11.1389C88.4835 10.4328 89.924 10.0797 91.5268 10.0797C93.1093 10.0797 94.5194 10.4328 95.757 11.1389C97.0149 11.8249 97.9888 12.8033 98.6786 14.0744C99.3887 15.3252 99.7438 16.7778 99.7438 18.4322ZM91.5268 13.106C90.3095 13.106 89.2748 13.4691 88.4226 14.1954C87.5908 14.9015 87.0836 15.8498 86.901 17.0401H96.1222C95.9599 15.87 95.4628 14.9217 94.631 14.1954C93.7992 13.4691 92.7644 13.106 91.5268 13.106Z" fill="white"/>
<path d="M110.245 26.6333C108.927 26.6333 107.638 26.4619 106.38 26.1189C105.122 25.7759 104.118 25.3421 103.367 24.8176L104.828 21.9426C105.559 22.4268 106.431 22.8203 107.445 23.1229C108.48 23.4053 109.495 23.5466 110.489 23.5466C112.761 23.5466 113.897 22.9514 113.897 21.7611C113.897 21.1962 113.603 20.8027 113.015 20.5808C112.447 20.3589 111.524 20.1471 110.245 19.9453C108.906 19.7436 107.811 19.5115 106.959 19.2493C106.127 18.987 105.396 18.5331 104.767 17.8875C104.159 17.2217 103.854 16.3037 103.854 15.1336C103.854 13.6003 104.493 12.3797 105.772 11.4718C107.07 10.5437 108.815 10.0797 111.006 10.0797C112.122 10.0797 113.238 10.2109 114.354 10.4731C115.47 10.7152 116.383 11.0481 117.093 11.4718L115.632 14.3467C114.252 13.5397 112.7 13.1362 110.976 13.1362C109.86 13.1362 109.008 13.3077 108.419 13.6507C107.851 13.9735 107.567 14.4073 107.567 14.952C107.567 15.5572 107.872 15.991 108.48 16.2533C109.109 16.4954 110.073 16.7274 111.371 16.9493C112.67 17.1511 113.735 17.3831 114.567 17.6454C115.399 17.9076 116.109 18.3515 116.697 18.9769C117.306 19.6023 117.61 20.49 117.61 21.64C117.61 23.1531 116.951 24.3636 115.632 25.2715C114.313 26.1794 112.518 26.6333 110.245 26.6333Z" fill="white"/>
<path d="M138.629 3.96667V26.4215H134.977V24.3334C134.348 25.1 133.567 25.675 132.633 26.0583C131.72 26.4417 130.706 26.6333 129.59 26.6333C128.028 26.6333 126.618 26.2904 125.36 25.6044C124.122 24.9185 123.148 23.9501 122.438 22.6992C121.728 21.4282 121.373 19.9756 121.373 18.3414C121.373 16.7072 121.728 15.2647 122.438 14.0138C123.148 12.763 124.122 11.7946 125.36 11.1086C126.618 10.4227 128.028 10.0797 129.59 10.0797C130.665 10.0797 131.649 10.2613 132.542 10.6244C133.435 10.9876 134.196 11.5323 134.825 12.2586V3.96667H138.629ZM130.047 23.3952C130.96 23.3952 131.781 23.1935 132.512 22.79C133.242 22.3663 133.82 21.7712 134.246 21.0045C134.672 20.2379 134.885 19.3501 134.885 18.3414C134.885 17.3326 134.672 16.4449 134.246 15.6783C133.82 14.9116 133.242 14.3266 132.512 13.9231C131.781 13.4994 130.96 13.2875 130.047 13.2875C129.134 13.2875 128.312 13.4994 127.582 13.9231C126.851 14.3266 126.273 14.9116 125.847 15.6783C125.421 16.4449 125.208 17.3326 125.208 18.3414C125.208 19.3501 125.421 20.2379 125.847 21.0045C126.273 21.7712 126.851 22.3663 127.582 22.79C128.312 23.1935 129.134 23.3952 130.047 23.3952Z" fill="white"/>
<path d="M160.709 18.4322C160.709 18.6945 160.688 19.0677 160.648 19.5519H147.896C148.12 20.7422 148.698 21.6905 149.631 22.3966C150.585 23.0825 151.761 23.4255 153.161 23.4255C154.947 23.4255 156.418 22.8404 157.574 21.6703L159.613 24.0005C158.883 24.868 157.96 25.5237 156.844 25.9676C155.728 26.4114 154.47 26.6333 153.07 26.6333C151.285 26.6333 149.712 26.2803 148.353 25.5741C146.994 24.868 145.939 23.8895 145.188 22.6387C144.457 21.3677 144.092 19.9352 144.092 18.3414C144.092 16.7677 144.447 15.3555 145.157 14.1046C145.888 12.8336 146.892 11.845 148.17 11.1389C149.448 10.4328 150.889 10.0797 152.492 10.0797C154.074 10.0797 155.484 10.4328 156.722 11.1389C157.98 11.8249 158.954 12.8033 159.644 14.0744C160.354 15.3252 160.709 16.7778 160.709 18.4322ZM152.492 13.106C151.274 13.106 150.24 13.4691 149.388 14.1954C148.556 14.9015 148.049 15.8498 147.866 17.0401H157.087C156.925 15.87 156.428 14.9217 155.596 14.1954C154.764 13.4691 153.729 13.106 152.492 13.106Z" fill="white"/>
<path d="M181.108 10.2613L174.139 26.4215H170.213L163.244 10.2613H167.2L172.252 22.2453L177.456 10.2613H181.108Z" fill="white"/>
<g clip-path="url(#clip0)">
<path d="M29.4447 0L9.81494 34H19.6298L39.2596 0H29.4447Z" fill="#C1C1C1"/>
<path d="M14.7227 25.4984L19.6301 34L16.9083 21.7139L14.7227 25.4984Z" fill="#A0A0A0"/>
<path d="M19.6298 0L9.81489 17H0L9.81489 0H19.6298Z" fill="white"/>
<path d="M0 17L9.81489 34H19.6298L9.81489 17H0Z" fill="#E8E8E8"/>
<path d="M29.4443 0L39.2592 17H49.0741L39.2592 0H29.4443Z" fill="white"/>
<path d="M49.0741 17L39.2592 34H29.4443L39.2592 17H49.0741Z" fill="#E8E8E8"/>
<path d="M34.3518 8.49841L29.4443 0L32.1661 12.2861L34.3518 8.49841Z" fill="#A0A0A0"/>
</g>
<defs>
<clipPath id="clip0">
<rect width="49.0745" height="34" fill="white"/>
</clipPath>
</defs>
</svg>
