<svg xmlns="http://www.w3.org/2000/svg" width="19" height="15" viewBox="0 0 19 15">
    <g fill="none" fill-rule="evenodd">
        <g fill="#171818">
            <g>
                <g>
                    <path d="M18.195 3.017c-.669.296-1.389.495-2.144.586.771-.461 1.363-1.189 1.641-2.057-.722.426-1.519.736-2.37.902-.681-.723-1.651-1.174-2.726-1.174-2.061 0-3.733 1.664-3.733 3.717 0 .293.034.576.098.848-3.102-.154-5.853-1.635-7.694-3.884-.322.548-.505 1.187-.505 1.869 0 1.289.659 2.428 1.66 3.094-.612-.02-1.187-.187-1.69-.465V6.5c0 1.801 1.286 3.303 2.994 3.645-.313.084-.642.13-.983.13-.24 0-.475-.023-.703-.066.475 1.476 1.854 2.551 3.487 2.581-1.277.997-2.887 1.592-4.636 1.592-.301 0-.599-.018-.891-.052C1.652 15.384 3.614 16 5.723 16c6.866 0 10.62-5.665 10.62-10.578 0-.161-.003-.321-.01-.48.729-.524 1.362-1.179 1.862-1.924v-.001" transform="translate(-1334.000000, -7285.000000) translate(0.000000, 7052.000000) translate(1334.000000, 232.000000)"/>
                </g>
            </g>
        </g>
    </g>
</svg>
